# xmcd
#
# Track frame offsets:
# 150
# 19383
# 37339
# 53115
# 70232
# 85622
# 103244
# 121734
# 135346
# 151375
# 172747
# 189112
# 204136
# 223565
# 240771
#
# Disc length: 3412 seconds
#
# Revision: 0
# Processed by: cddbd v1.5.2PL0 Copyright (c) Steve Scherf et al.
# Submitted via: Audion 3.0.2 (http://www.panic.com/audion/)
#
DISCID=b90d520f
DTITLE=Jason Aldean - My Kinda Party 
DYEAR=1900
DGENRE=
TTITLE0=Don't you wanna stay
TTITLE1=Days like these
TTITLE2=if she could see me now
TTITLE3=see you when i see you
TTITLE4=texas was you
TTITLE5=the heartache that don't stop hurting
TTITLE6=country boy's world
TTITLE7=it ain't easy
TTITLE8=i ain't ready to quit
TTITLE9=my kinda party
TTITLE10=fly over town
TTITLE11=just passin through
TTITLE12=church pew or bar stool
TTITLE13=dirt road anthem
TTITLE14=tattoos on this town
EXTD=
EXTT0=
EXTT1=
EXTT2=
EXTT3=
EXTT4=
EXTT5=
EXTT6=
EXTT7=
EXTT8=
EXTT9=
EXTT10=
EXTT11=
EXTT12=
EXTT13=
EXTT14=
PLAYORDER=
